# xmcd
#
# Track frame offsets:
#	150
#	12685
#	28775
#	43460
#	57985
#	69177
#	84360
#	98177
#	112340
#	127757
#	144690
#	160245
#	178172
#
# Disc length: 2582 seconds
#
# Revision: 1
# Processed by: cddbd v1.5PL3 Copyright (c) Steve Scherf et al.
# Submitted via: CDex 1.50Beta5
#
DISCID=ba0a140d
DTITLE=田原俊彦 - 田原俊彦A面コレクション 1
DYEAR=1900
DGENRE=Pop
TTITLE0=哀愁でいと(NEW YORK CITY NIGHTS)
TTITLE1=ハッとして! Good
TTITLE2=恋=Do!
TTITLE3=ブギ浮ぎ I LOVE YOU
TTITLE4=キミに決定!
TTITLE5=悲しみTOOヤング
TTITLE6=グッドラックLOVE
TTITLE7=君に薔薇薔薇…という感じ
TTITLE8=原宿キッス
TTITLE9=NINJIN娘
TTITLE10=誘惑スレスレ
TTITLE11=ラブ・シュプール
TTITLE12=ピエロ
EXTD=
EXTT0=
EXTT1=
EXTT2=
EXTT3=
EXTT4=
EXTT5=
EXTT6=
EXTT7=
EXTT8=
EXTT9=
EXTT10=
EXTT11=
EXTT12=
PLAYORDER=
